# xmcd CD database file
#
# Track frame offsets:
#	150
#	4942
#	24175
#	40153
#	56075
#	70285
#	82349
#	95011
#	108481
#	127263
#	131942
#	145593
#	167164
#	185595
#	197494
#	211976
#	227957
#	232610
#	243715
#	258865
#
# Disc length: 3934 seconds
#
# Revision: 0
# Processed by: cddbd v1.5.1PL0 Copyright (c) Steve Scherf et al.
# Submitted via: CDex 1.51
#
DISCID=230f5c14
DTITLE=Woody Herman - The Third Herd [Storyville]
DYEAR=1999
DGENRE=Jazz
TTITLE0=Theme: Blue Flame
TTITLE1=Perdido
TTITLE2=Lonesome Gal
TTITLE3=Early Autumn
TTITLE4=By George
TTITLE5=Pennies From Heaven
TTITLE6=Don't Take Your Love From Me
TTITLE7=You're My Everything
TTITLE8=More Moon
TTITLE9=Theme: Blue Flame
TTITLE10=Sonny Speaks
TTITLE11=The Boy Next Door
TTITLE12=I Apologize
TTITLE13=You're My Thrill
TTITLE14=Laura
TTITLE15=Woodchopper's Ball
TTITLE16=Theme: Blue Flame
TTITLE17=The Glory Of Love
TTITLE18=Starlight Souvenirs
TTITLE19=Leo The Lion/Woodchopper's Ball
EXTD=YEAR: 1999
EXTT0=
EXTT1=
EXTT2=
EXTT3=
EXTT4=
EXTT5=
EXTT6=
EXTT7=
EXTT8=
EXTT9=
EXTT10=
EXTT11=
EXTT12=
EXTT13=
EXTT14=
EXTT15=
EXTT16=
EXTT17=
EXTT18=
EXTT19=
PLAYORDER=
